<mxfile host="app.diagrams.net" modified="2023-01-27T04:47:31.483Z" agent="5.0 (Windows NT 10.0; Win64; x64) AppleWebKit/537.36 (KHTML, like Gecko) Chrome/106.0.0.0 YaBrowser/22.11.5.715 Yowser/2.5 Safari/537.36" etag="RFBI6v9i9AXsQ890q5xM" version="20.8.10" type="github">
  <diagram id="o3SfKFsg-XddMGT-pLEB" name="Страница 1">
    <mxGraphModel dx="3827" dy="2818" grid="1" gridSize="10" guides="1" tooltips="1" connect="1" arrows="1" fold="1" page="1" pageScale="1" pageWidth="827" pageHeight="1169" math="0" shadow="0">
      <root>
        <mxCell id="0" />
        <mxCell id="1" parent="0" />
        <mxCell id="TAnfAXLuEqWQbed71-oy-4" value="" style="edgeStyle=orthogonalEdgeStyle;rounded=0;orthogonalLoop=1;jettySize=auto;html=1;" parent="1" source="TAnfAXLuEqWQbed71-oy-1" target="TAnfAXLuEqWQbed71-oy-3" edge="1">
          <mxGeometry relative="1" as="geometry" />
        </mxCell>
        <mxCell id="TAnfAXLuEqWQbed71-oy-6" value="" style="edgeStyle=orthogonalEdgeStyle;rounded=0;orthogonalLoop=1;jettySize=auto;html=1;" parent="1" source="TAnfAXLuEqWQbed71-oy-1" target="TAnfAXLuEqWQbed71-oy-5" edge="1">
          <mxGeometry relative="1" as="geometry" />
        </mxCell>
        <mxCell id="TAnfAXLuEqWQbed71-oy-1" value="Войдите для доступа к Kittygram!" style="rounded=1;whiteSpace=wrap;html=1;" parent="1" vertex="1">
          <mxGeometry x="350" y="330" width="120" height="60" as="geometry" />
        </mxCell>
        <mxCell id="TAnfAXLuEqWQbed71-oy-81" style="edgeStyle=orthogonalEdgeStyle;rounded=0;orthogonalLoop=1;jettySize=auto;html=1;entryX=0;entryY=0.5;entryDx=0;entryDy=0;" parent="1" source="TAnfAXLuEqWQbed71-oy-3" target="TAnfAXLuEqWQbed71-oy-79" edge="1">
          <mxGeometry relative="1" as="geometry" />
        </mxCell>
        <mxCell id="jt-Zn96lODomyRDhghk2-7" style="edgeStyle=orthogonalEdgeStyle;rounded=0;orthogonalLoop=1;jettySize=auto;html=1;entryX=0;entryY=0.5;entryDx=0;entryDy=0;fontColor=#FF3333;" edge="1" parent="1" source="TAnfAXLuEqWQbed71-oy-3" target="jt-Zn96lODomyRDhghk2-3">
          <mxGeometry relative="1" as="geometry" />
        </mxCell>
        <mxCell id="TAnfAXLuEqWQbed71-oy-3" value="Логика" style="whiteSpace=wrap;html=1;rounded=1;" parent="1" vertex="1">
          <mxGeometry x="550" y="330" width="120" height="60" as="geometry" />
        </mxCell>
        <mxCell id="TAnfAXLuEqWQbed71-oy-28" style="edgeStyle=orthogonalEdgeStyle;rounded=0;orthogonalLoop=1;jettySize=auto;html=1;entryX=1;entryY=0.5;entryDx=0;entryDy=0;" parent="1" source="TAnfAXLuEqWQbed71-oy-5" target="TAnfAXLuEqWQbed71-oy-7" edge="1">
          <mxGeometry relative="1" as="geometry" />
        </mxCell>
        <mxCell id="TAnfAXLuEqWQbed71-oy-29" style="edgeStyle=orthogonalEdgeStyle;rounded=0;orthogonalLoop=1;jettySize=auto;html=1;entryX=1;entryY=0.5;entryDx=0;entryDy=0;" parent="1" source="TAnfAXLuEqWQbed71-oy-5" target="TAnfAXLuEqWQbed71-oy-27" edge="1">
          <mxGeometry relative="1" as="geometry" />
        </mxCell>
        <mxCell id="jt-Zn96lODomyRDhghk2-1" style="edgeStyle=orthogonalEdgeStyle;rounded=0;orthogonalLoop=1;jettySize=auto;html=1;entryX=1;entryY=0.5;entryDx=0;entryDy=0;fontColor=#FF3333;" edge="1" parent="1" source="TAnfAXLuEqWQbed71-oy-5" target="xQ01a2YANTBOG30FUFwp-22">
          <mxGeometry relative="1" as="geometry" />
        </mxCell>
        <mxCell id="TAnfAXLuEqWQbed71-oy-5" value="Интерфейс" style="whiteSpace=wrap;html=1;rounded=1;" parent="1" vertex="1">
          <mxGeometry x="150" y="330" width="120" height="60" as="geometry" />
        </mxCell>
        <mxCell id="TAnfAXLuEqWQbed71-oy-18" value="" style="edgeStyle=orthogonalEdgeStyle;rounded=0;orthogonalLoop=1;jettySize=auto;html=1;" parent="1" source="TAnfAXLuEqWQbed71-oy-7" target="TAnfAXLuEqWQbed71-oy-17" edge="1">
          <mxGeometry relative="1" as="geometry" />
        </mxCell>
        <mxCell id="TAnfAXLuEqWQbed71-oy-20" style="edgeStyle=orthogonalEdgeStyle;rounded=0;orthogonalLoop=1;jettySize=auto;html=1;entryX=1;entryY=0.5;entryDx=0;entryDy=0;" parent="1" source="TAnfAXLuEqWQbed71-oy-7" target="TAnfAXLuEqWQbed71-oy-19" edge="1">
          <mxGeometry relative="1" as="geometry">
            <Array as="points">
              <mxPoint x="-110" y="-60" />
              <mxPoint x="-110" y="30" />
            </Array>
          </mxGeometry>
        </mxCell>
        <mxCell id="TAnfAXLuEqWQbed71-oy-21" style="edgeStyle=orthogonalEdgeStyle;rounded=0;orthogonalLoop=1;jettySize=auto;html=1;entryX=1;entryY=0.5;entryDx=0;entryDy=0;" parent="1" source="TAnfAXLuEqWQbed71-oy-7" target="TAnfAXLuEqWQbed71-oy-10" edge="1">
          <mxGeometry relative="1" as="geometry">
            <Array as="points">
              <mxPoint x="-110" y="-60" />
              <mxPoint x="-110" y="-150" />
            </Array>
          </mxGeometry>
        </mxCell>
        <mxCell id="TAnfAXLuEqWQbed71-oy-7" value="Header" style="whiteSpace=wrap;html=1;rounded=1;" parent="1" vertex="1">
          <mxGeometry x="-50" y="-90" width="120" height="60" as="geometry" />
        </mxCell>
        <mxCell id="TAnfAXLuEqWQbed71-oy-63" style="edgeStyle=orthogonalEdgeStyle;rounded=0;orthogonalLoop=1;jettySize=auto;html=1;entryX=1;entryY=0.5;entryDx=0;entryDy=0;" parent="1" source="TAnfAXLuEqWQbed71-oy-10" target="TAnfAXLuEqWQbed71-oy-52" edge="1">
          <mxGeometry relative="1" as="geometry" />
        </mxCell>
        <mxCell id="TAnfAXLuEqWQbed71-oy-10" value="Картинка кота" style="whiteSpace=wrap;html=1;rounded=1;" parent="1" vertex="1">
          <mxGeometry x="-280" y="-180" width="120" height="60" as="geometry" />
        </mxCell>
        <mxCell id="TAnfAXLuEqWQbed71-oy-64" style="edgeStyle=orthogonalEdgeStyle;rounded=0;orthogonalLoop=1;jettySize=auto;html=1;entryX=1;entryY=0.5;entryDx=0;entryDy=0;" parent="1" source="TAnfAXLuEqWQbed71-oy-17" target="TAnfAXLuEqWQbed71-oy-53" edge="1">
          <mxGeometry relative="1" as="geometry" />
        </mxCell>
        <mxCell id="TAnfAXLuEqWQbed71-oy-17" value="Заголовок &quot;Вход&quot;" style="whiteSpace=wrap;html=1;rounded=1;" parent="1" vertex="1">
          <mxGeometry x="-280" y="-90" width="120" height="60" as="geometry" />
        </mxCell>
        <mxCell id="TAnfAXLuEqWQbed71-oy-66" style="edgeStyle=orthogonalEdgeStyle;rounded=0;orthogonalLoop=1;jettySize=auto;html=1;entryX=1;entryY=0.5;entryDx=0;entryDy=0;" parent="1" source="TAnfAXLuEqWQbed71-oy-19" target="TAnfAXLuEqWQbed71-oy-54" edge="1">
          <mxGeometry relative="1" as="geometry" />
        </mxCell>
        <mxCell id="TAnfAXLuEqWQbed71-oy-19" value="Подзаголовок &quot;Войдите для доступа к Kittygram!&quot;" style="whiteSpace=wrap;html=1;rounded=1;" parent="1" vertex="1">
          <mxGeometry x="-280" width="120" height="60" as="geometry" />
        </mxCell>
        <mxCell id="TAnfAXLuEqWQbed71-oy-38" style="edgeStyle=orthogonalEdgeStyle;rounded=0;orthogonalLoop=1;jettySize=auto;html=1;entryX=1;entryY=0.5;entryDx=0;entryDy=0;" parent="1" source="TAnfAXLuEqWQbed71-oy-27" target="TAnfAXLuEqWQbed71-oy-30" edge="1">
          <mxGeometry relative="1" as="geometry" />
        </mxCell>
        <mxCell id="TAnfAXLuEqWQbed71-oy-39" style="edgeStyle=orthogonalEdgeStyle;rounded=0;orthogonalLoop=1;jettySize=auto;html=1;entryX=1;entryY=0.5;entryDx=0;entryDy=0;" parent="1" source="TAnfAXLuEqWQbed71-oy-27" target="TAnfAXLuEqWQbed71-oy-31" edge="1">
          <mxGeometry relative="1" as="geometry" />
        </mxCell>
        <mxCell id="TAnfAXLuEqWQbed71-oy-40" style="edgeStyle=orthogonalEdgeStyle;rounded=0;orthogonalLoop=1;jettySize=auto;html=1;entryX=1;entryY=0.5;entryDx=0;entryDy=0;" parent="1" source="TAnfAXLuEqWQbed71-oy-27" target="TAnfAXLuEqWQbed71-oy-32" edge="1">
          <mxGeometry relative="1" as="geometry" />
        </mxCell>
        <mxCell id="TAnfAXLuEqWQbed71-oy-41" style="edgeStyle=orthogonalEdgeStyle;rounded=0;orthogonalLoop=1;jettySize=auto;html=1;entryX=1;entryY=0.5;entryDx=0;entryDy=0;" parent="1" source="TAnfAXLuEqWQbed71-oy-27" target="TAnfAXLuEqWQbed71-oy-33" edge="1">
          <mxGeometry relative="1" as="geometry" />
        </mxCell>
        <mxCell id="TAnfAXLuEqWQbed71-oy-42" style="edgeStyle=orthogonalEdgeStyle;rounded=0;orthogonalLoop=1;jettySize=auto;html=1;entryX=1;entryY=0.5;entryDx=0;entryDy=0;" parent="1" source="TAnfAXLuEqWQbed71-oy-27" target="TAnfAXLuEqWQbed71-oy-34" edge="1">
          <mxGeometry relative="1" as="geometry" />
        </mxCell>
        <mxCell id="TAnfAXLuEqWQbed71-oy-27" value="Блок ввода данных" style="whiteSpace=wrap;html=1;rounded=1;" parent="1" vertex="1">
          <mxGeometry x="-50" y="330" width="120" height="60" as="geometry" />
        </mxCell>
        <mxCell id="TAnfAXLuEqWQbed71-oy-68" style="edgeStyle=orthogonalEdgeStyle;rounded=0;orthogonalLoop=1;jettySize=auto;html=1;entryX=1;entryY=0.5;entryDx=0;entryDy=0;" parent="1" source="TAnfAXLuEqWQbed71-oy-30" target="TAnfAXLuEqWQbed71-oy-56" edge="1">
          <mxGeometry relative="1" as="geometry" />
        </mxCell>
        <mxCell id="TAnfAXLuEqWQbed71-oy-30" value="Поле ввода - Имя" style="whiteSpace=wrap;html=1;rounded=1;" parent="1" vertex="1">
          <mxGeometry x="-280" y="150" width="120" height="60" as="geometry" />
        </mxCell>
        <mxCell id="TAnfAXLuEqWQbed71-oy-69" style="edgeStyle=orthogonalEdgeStyle;rounded=0;orthogonalLoop=1;jettySize=auto;html=1;entryX=1;entryY=0.5;entryDx=0;entryDy=0;" parent="1" source="TAnfAXLuEqWQbed71-oy-31" target="TAnfAXLuEqWQbed71-oy-57" edge="1">
          <mxGeometry relative="1" as="geometry" />
        </mxCell>
        <mxCell id="TAnfAXLuEqWQbed71-oy-31" value="Поле ввода - Пароль" style="whiteSpace=wrap;html=1;rounded=1;" parent="1" vertex="1">
          <mxGeometry x="-280" y="240" width="120" height="60" as="geometry" />
        </mxCell>
        <mxCell id="TAnfAXLuEqWQbed71-oy-70" style="edgeStyle=orthogonalEdgeStyle;rounded=0;orthogonalLoop=1;jettySize=auto;html=1;entryX=1;entryY=0.5;entryDx=0;entryDy=0;" parent="1" source="TAnfAXLuEqWQbed71-oy-32" target="TAnfAXLuEqWQbed71-oy-58" edge="1">
          <mxGeometry relative="1" as="geometry" />
        </mxCell>
        <mxCell id="TAnfAXLuEqWQbed71-oy-32" value="Кнопка отображения пароля" style="whiteSpace=wrap;html=1;rounded=1;" parent="1" vertex="1">
          <mxGeometry x="-280" y="330" width="120" height="60" as="geometry" />
        </mxCell>
        <mxCell id="TAnfAXLuEqWQbed71-oy-71" style="edgeStyle=orthogonalEdgeStyle;rounded=0;orthogonalLoop=1;jettySize=auto;html=1;entryX=1;entryY=0.5;entryDx=0;entryDy=0;" parent="1" source="TAnfAXLuEqWQbed71-oy-33" target="TAnfAXLuEqWQbed71-oy-59" edge="1">
          <mxGeometry relative="1" as="geometry" />
        </mxCell>
        <mxCell id="TAnfAXLuEqWQbed71-oy-33" value="Кнопка &quot;Войти&quot;" style="whiteSpace=wrap;html=1;rounded=1;" parent="1" vertex="1">
          <mxGeometry x="-280" y="420" width="120" height="60" as="geometry" />
        </mxCell>
        <mxCell id="TAnfAXLuEqWQbed71-oy-72" style="edgeStyle=orthogonalEdgeStyle;rounded=0;orthogonalLoop=1;jettySize=auto;html=1;entryX=1;entryY=0.5;entryDx=0;entryDy=0;" parent="1" source="TAnfAXLuEqWQbed71-oy-34" target="TAnfAXLuEqWQbed71-oy-60" edge="1">
          <mxGeometry relative="1" as="geometry" />
        </mxCell>
        <mxCell id="TAnfAXLuEqWQbed71-oy-34" value="Кнопка &quot;Еще не зарегистрированы? Зарегистрируйтесь&quot;" style="whiteSpace=wrap;html=1;rounded=1;" parent="1" vertex="1">
          <mxGeometry x="-280" y="510" width="120" height="60" as="geometry" />
        </mxCell>
        <mxCell id="TAnfAXLuEqWQbed71-oy-52" value="Проверить место расположение элемента, цвет, размер" style="rounded=0;whiteSpace=wrap;html=1;" parent="1" vertex="1">
          <mxGeometry x="-770" y="-180" width="430" height="60" as="geometry" />
        </mxCell>
        <mxCell id="TAnfAXLuEqWQbed71-oy-53" value="Проверить место расположение элемента, текст, шрифт, цвет, размер,орфография" style="rounded=0;whiteSpace=wrap;html=1;" parent="1" vertex="1">
          <mxGeometry x="-770" y="-90" width="430" height="60" as="geometry" />
        </mxCell>
        <mxCell id="TAnfAXLuEqWQbed71-oy-54" value="Проверить место расположение элемента, текст, шрифт, цвет, размер, орфография" style="rounded=0;whiteSpace=wrap;html=1;" parent="1" vertex="1">
          <mxGeometry x="-770" width="430" height="60" as="geometry" />
        </mxCell>
        <mxCell id="TAnfAXLuEqWQbed71-oy-56" value="Проверить место расположение элемента, текст, шрифт, цвет, размер, орфография, &lt;font color=&quot;#ff3333&quot;&gt;плейсхолдер&lt;/font&gt;" style="rounded=0;whiteSpace=wrap;html=1;" parent="1" vertex="1">
          <mxGeometry x="-770" y="150" width="430" height="60" as="geometry" />
        </mxCell>
        <mxCell id="TAnfAXLuEqWQbed71-oy-57" value="Проверить место расположение элемента, текст, шрифт, цвет, размер, орфография, &lt;font color=&quot;#ff3333&quot;&gt;плейсхолдер&lt;/font&gt;" style="rounded=0;whiteSpace=wrap;html=1;" parent="1" vertex="1">
          <mxGeometry x="-770" y="240" width="430" height="60" as="geometry" />
        </mxCell>
        <mxCell id="TAnfAXLuEqWQbed71-oy-58" value="&lt;span style=&quot;color: rgb(0, 0, 0); font-family: Helvetica; font-size: 12px; font-style: normal; font-variant-ligatures: normal; font-variant-caps: normal; font-weight: 400; letter-spacing: normal; orphans: 2; text-align: center; text-indent: 0px; text-transform: none; widows: 2; word-spacing: 0px; -webkit-text-stroke-width: 0px; background-color: rgb(248, 249, 250); text-decoration-thickness: initial; text-decoration-style: initial; text-decoration-color: initial; float: none; display: inline !important;&quot;&gt;Проверить место расположение элемента, цвет, размер&lt;/span&gt;" style="rounded=0;whiteSpace=wrap;html=1;" parent="1" vertex="1">
          <mxGeometry x="-770" y="330" width="430" height="60" as="geometry" />
        </mxCell>
        <mxCell id="TAnfAXLuEqWQbed71-oy-59" value="&lt;span style=&quot;color: rgb(0, 0, 0); font-family: Helvetica; font-size: 12px; font-style: normal; font-variant-ligatures: normal; font-variant-caps: normal; font-weight: 400; letter-spacing: normal; orphans: 2; text-align: center; text-indent: 0px; text-transform: none; widows: 2; word-spacing: 0px; -webkit-text-stroke-width: 0px; background-color: rgb(248, 249, 250); text-decoration-thickness: initial; text-decoration-style: initial; text-decoration-color: initial; float: none; display: inline !important;&quot;&gt;Проверить место расположение элемента, текст, шрифт, цвет, размер, орфография, текст под кнопкой &quot;или&quot;&lt;/span&gt;" style="rounded=0;whiteSpace=wrap;html=1;" parent="1" vertex="1">
          <mxGeometry x="-770" y="420" width="430" height="60" as="geometry" />
        </mxCell>
        <mxCell id="TAnfAXLuEqWQbed71-oy-60" value="&lt;br&gt;&lt;span style=&quot;color: rgb(0, 0, 0); font-family: Helvetica; font-size: 12px; font-style: normal; font-variant-ligatures: normal; font-variant-caps: normal; font-weight: 400; letter-spacing: normal; orphans: 2; text-align: center; text-indent: 0px; text-transform: none; widows: 2; word-spacing: 0px; -webkit-text-stroke-width: 0px; background-color: rgb(248, 249, 250); text-decoration-thickness: initial; text-decoration-style: initial; text-decoration-color: initial; float: none; display: inline !important;&quot;&gt;Проверить место расположение элемента, текст, шрифт, цвет, размер, орфография&lt;/span&gt;&lt;br&gt;" style="rounded=0;whiteSpace=wrap;html=1;" parent="1" vertex="1">
          <mxGeometry x="-770" y="510" width="430" height="60" as="geometry" />
        </mxCell>
        <mxCell id="TAnfAXLuEqWQbed71-oy-128" style="edgeStyle=orthogonalEdgeStyle;rounded=0;orthogonalLoop=1;jettySize=auto;html=1;entryX=0;entryY=0.5;entryDx=0;entryDy=0;" parent="1" source="TAnfAXLuEqWQbed71-oy-79" target="TAnfAXLuEqWQbed71-oy-121" edge="1">
          <mxGeometry relative="1" as="geometry" />
        </mxCell>
        <mxCell id="TAnfAXLuEqWQbed71-oy-129" style="edgeStyle=orthogonalEdgeStyle;rounded=0;orthogonalLoop=1;jettySize=auto;html=1;entryX=0;entryY=0.5;entryDx=0;entryDy=0;" parent="1" source="TAnfAXLuEqWQbed71-oy-79" target="TAnfAXLuEqWQbed71-oy-122" edge="1">
          <mxGeometry relative="1" as="geometry" />
        </mxCell>
        <mxCell id="TAnfAXLuEqWQbed71-oy-130" style="edgeStyle=orthogonalEdgeStyle;rounded=0;orthogonalLoop=1;jettySize=auto;html=1;entryX=0;entryY=0.5;entryDx=0;entryDy=0;" parent="1" source="TAnfAXLuEqWQbed71-oy-79" target="TAnfAXLuEqWQbed71-oy-123" edge="1">
          <mxGeometry relative="1" as="geometry" />
        </mxCell>
        <mxCell id="TAnfAXLuEqWQbed71-oy-131" style="edgeStyle=orthogonalEdgeStyle;rounded=0;orthogonalLoop=1;jettySize=auto;html=1;entryX=0;entryY=0.5;entryDx=0;entryDy=0;" parent="1" source="TAnfAXLuEqWQbed71-oy-79" target="TAnfAXLuEqWQbed71-oy-124" edge="1">
          <mxGeometry relative="1" as="geometry" />
        </mxCell>
        <mxCell id="TAnfAXLuEqWQbed71-oy-132" style="edgeStyle=orthogonalEdgeStyle;rounded=0;orthogonalLoop=1;jettySize=auto;html=1;entryX=0;entryY=0.25;entryDx=0;entryDy=0;" parent="1" source="TAnfAXLuEqWQbed71-oy-79" target="TAnfAXLuEqWQbed71-oy-125" edge="1">
          <mxGeometry relative="1" as="geometry" />
        </mxCell>
        <mxCell id="TAnfAXLuEqWQbed71-oy-79" value="Блок ввода данных" style="whiteSpace=wrap;html=1;rounded=1;" parent="1" vertex="1">
          <mxGeometry x="730" y="330" width="120" height="60" as="geometry" />
        </mxCell>
        <mxCell id="TAnfAXLuEqWQbed71-oy-154" style="edgeStyle=orthogonalEdgeStyle;rounded=0;orthogonalLoop=1;jettySize=auto;html=1;entryX=0;entryY=0.5;entryDx=0;entryDy=0;entryPerimeter=0;" parent="1" source="TAnfAXLuEqWQbed71-oy-121" target="TAnfAXLuEqWQbed71-oy-143" edge="1">
          <mxGeometry relative="1" as="geometry" />
        </mxCell>
        <mxCell id="TAnfAXLuEqWQbed71-oy-121" value="Поле ввода - Имя" style="whiteSpace=wrap;html=1;rounded=1;" parent="1" vertex="1">
          <mxGeometry x="960" y="150" width="120" height="60" as="geometry" />
        </mxCell>
        <mxCell id="TAnfAXLuEqWQbed71-oy-155" style="edgeStyle=orthogonalEdgeStyle;rounded=0;orthogonalLoop=1;jettySize=auto;html=1;entryX=0;entryY=0.5;entryDx=0;entryDy=0;" parent="1" source="TAnfAXLuEqWQbed71-oy-122" target="TAnfAXLuEqWQbed71-oy-144" edge="1">
          <mxGeometry relative="1" as="geometry" />
        </mxCell>
        <mxCell id="TAnfAXLuEqWQbed71-oy-122" value="Поле ввода - Пароль" style="whiteSpace=wrap;html=1;rounded=1;" parent="1" vertex="1">
          <mxGeometry x="960" y="240" width="120" height="60" as="geometry" />
        </mxCell>
        <mxCell id="TAnfAXLuEqWQbed71-oy-156" style="edgeStyle=orthogonalEdgeStyle;rounded=0;orthogonalLoop=1;jettySize=auto;html=1;entryX=0;entryY=0.5;entryDx=0;entryDy=0;" parent="1" source="TAnfAXLuEqWQbed71-oy-123" target="TAnfAXLuEqWQbed71-oy-145" edge="1">
          <mxGeometry relative="1" as="geometry" />
        </mxCell>
        <mxCell id="TAnfAXLuEqWQbed71-oy-123" value="Кнопка отображения пароля" style="whiteSpace=wrap;html=1;rounded=1;" parent="1" vertex="1">
          <mxGeometry x="960" y="330" width="120" height="60" as="geometry" />
        </mxCell>
        <mxCell id="TAnfAXLuEqWQbed71-oy-157" style="edgeStyle=orthogonalEdgeStyle;rounded=0;orthogonalLoop=1;jettySize=auto;html=1;entryX=0;entryY=0.5;entryDx=0;entryDy=0;" parent="1" source="TAnfAXLuEqWQbed71-oy-124" target="TAnfAXLuEqWQbed71-oy-146" edge="1">
          <mxGeometry relative="1" as="geometry" />
        </mxCell>
        <mxCell id="TAnfAXLuEqWQbed71-oy-124" value="Кнопка &quot;Войти&quot;" style="whiteSpace=wrap;html=1;rounded=1;" parent="1" vertex="1">
          <mxGeometry x="960" y="420" width="120" height="60" as="geometry" />
        </mxCell>
        <mxCell id="TAnfAXLuEqWQbed71-oy-158" style="edgeStyle=orthogonalEdgeStyle;rounded=0;orthogonalLoop=1;jettySize=auto;html=1;entryX=0;entryY=0.5;entryDx=0;entryDy=0;" parent="1" source="TAnfAXLuEqWQbed71-oy-125" target="TAnfAXLuEqWQbed71-oy-147" edge="1">
          <mxGeometry relative="1" as="geometry" />
        </mxCell>
        <mxCell id="TAnfAXLuEqWQbed71-oy-125" value="Кнопка &quot;Еще не зарегистрированы? Зарегистрируйтесь&quot;" style="whiteSpace=wrap;html=1;rounded=1;" parent="1" vertex="1">
          <mxGeometry x="960" y="510" width="120" height="60" as="geometry" />
        </mxCell>
        <mxCell id="TAnfAXLuEqWQbed71-oy-143" value="Пользователь вводит зарегистрированное Имя&amp;nbsp;" style="rounded=0;whiteSpace=wrap;html=1;" parent="1" vertex="1">
          <mxGeometry x="1140" y="150" width="430" height="60" as="geometry" />
        </mxCell>
        <mxCell id="TAnfAXLuEqWQbed71-oy-144" value="Пользователь вводи пароль к зарегистрированному Имени&amp;nbsp;" style="rounded=0;whiteSpace=wrap;html=1;" parent="1" vertex="1">
          <mxGeometry x="1140" y="240" width="430" height="60" as="geometry" />
        </mxCell>
        <mxCell id="TAnfAXLuEqWQbed71-oy-145" value="Кнопка кликабельна. Клик по кнопке ведет к отображению пароля. Повторный клик по кнопке ведет к скрытию пароля" style="rounded=0;whiteSpace=wrap;html=1;" parent="1" vertex="1">
          <mxGeometry x="1140" y="330" width="430" height="60" as="geometry" />
        </mxCell>
        <mxCell id="TAnfAXLuEqWQbed71-oy-146" value="Клик по кнопке ведет на главную страницу Kittygram если пользователь ввел валидные значения в поле Имя и Пароль" style="rounded=0;whiteSpace=wrap;html=1;" parent="1" vertex="1">
          <mxGeometry x="1140" y="420" width="430" height="60" as="geometry" />
        </mxCell>
        <mxCell id="TAnfAXLuEqWQbed71-oy-147" value="Клик по кнопке ведет на страницу регистрации" style="rounded=0;whiteSpace=wrap;html=1;" parent="1" vertex="1">
          <mxGeometry x="1140" y="510" width="430" height="60" as="geometry" />
        </mxCell>
        <mxCell id="xQ01a2YANTBOG30FUFwp-35" style="edgeStyle=orthogonalEdgeStyle;rounded=0;orthogonalLoop=1;jettySize=auto;html=1;entryX=1;entryY=0.5;entryDx=0;entryDy=0;" parent="1" source="xQ01a2YANTBOG30FUFwp-22" target="xQ01a2YANTBOG30FUFwp-24" edge="1">
          <mxGeometry relative="1" as="geometry" />
        </mxCell>
        <mxCell id="xQ01a2YANTBOG30FUFwp-22" value="Footer" style="whiteSpace=wrap;html=1;rounded=1;" parent="1" vertex="1">
          <mxGeometry x="-50" y="660" width="120" height="60" as="geometry" />
        </mxCell>
        <mxCell id="xQ01a2YANTBOG30FUFwp-23" style="edgeStyle=orthogonalEdgeStyle;rounded=0;orthogonalLoop=1;jettySize=auto;html=1;entryX=1;entryY=0.5;entryDx=0;entryDy=0;" parent="1" source="xQ01a2YANTBOG30FUFwp-24" target="xQ01a2YANTBOG30FUFwp-31" edge="1">
          <mxGeometry relative="1" as="geometry" />
        </mxCell>
        <mxCell id="xQ01a2YANTBOG30FUFwp-24" value="Надпись &quot;Kittygram 2023&quot;" style="whiteSpace=wrap;html=1;rounded=1;" parent="1" vertex="1">
          <mxGeometry x="-280" y="660" width="120" height="60" as="geometry" />
        </mxCell>
        <mxCell id="xQ01a2YANTBOG30FUFwp-31" value="Проверить место расположение элемента, текст, шрифт, цвет, размер, орфография" style="rounded=0;whiteSpace=wrap;html=1;" parent="1" vertex="1">
          <mxGeometry x="-770" y="660" width="430" height="60" as="geometry" />
        </mxCell>
        <mxCell id="jt-Zn96lODomyRDhghk2-8" style="edgeStyle=orthogonalEdgeStyle;rounded=0;orthogonalLoop=1;jettySize=auto;html=1;entryX=0;entryY=0.5;entryDx=0;entryDy=0;fontColor=#FF3333;" edge="1" parent="1" source="jt-Zn96lODomyRDhghk2-3" target="jt-Zn96lODomyRDhghk2-5">
          <mxGeometry relative="1" as="geometry" />
        </mxCell>
        <mxCell id="jt-Zn96lODomyRDhghk2-3" value="Footer" style="whiteSpace=wrap;html=1;rounded=1;fillColor=#ffe6cc;strokeColor=#d79b00;" vertex="1" parent="1">
          <mxGeometry x="730" y="650" width="120" height="60" as="geometry" />
        </mxCell>
        <mxCell id="jt-Zn96lODomyRDhghk2-10" style="edgeStyle=orthogonalEdgeStyle;rounded=0;orthogonalLoop=1;jettySize=auto;html=1;entryX=0;entryY=0.5;entryDx=0;entryDy=0;fontColor=#FF3333;" edge="1" parent="1" source="jt-Zn96lODomyRDhghk2-5" target="jt-Zn96lODomyRDhghk2-6">
          <mxGeometry relative="1" as="geometry" />
        </mxCell>
        <mxCell id="jt-Zn96lODomyRDhghk2-5" value="Надпись &quot;Kittygram 2023&quot;" style="whiteSpace=wrap;html=1;rounded=1;fillColor=#ffe6cc;strokeColor=#d79b00;" vertex="1" parent="1">
          <mxGeometry x="960" y="650" width="120" height="60" as="geometry" />
        </mxCell>
        <mxCell id="jt-Zn96lODomyRDhghk2-6" value="Год в надписи меняется в зависимости от текущего года&amp;nbsp;" style="rounded=0;whiteSpace=wrap;html=1;fillColor=#ffe6cc;strokeColor=#d79b00;" vertex="1" parent="1">
          <mxGeometry x="1140" y="650" width="430" height="60" as="geometry" />
        </mxCell>
      </root>
    </mxGraphModel>
  </diagram>
</mxfile>
